<svg xmlns="http://www.w3.org/2000/svg" viewBox="0 0 80 80"><defs><style>.cls-1{fill:#435182}</style></defs><title>analytics</title><g id="Layer_2" data-name="Layer 2"><g id="Layer_1-2" data-name="Layer 1"><path class="cls-1" d="M46.2 57.93a2.35 2.35 0 0 1-.92-1.53l-.31-2H35l-.31 2a2.35 2.35 0 0 1-.92 1.53c-.83.61-1.49 1.14-.83 1.22s6.59 0 7 0 6.4.09 7 0 .06-.61-.74-1.22z"/><path class="cls-1" d="M40 80a40 40 0 1 1 40-40 40 40 0 0 1-40 40zm0-75.2A35.2 35.2 0 1 0 75.2 40 35.24 35.24 0 0 0 40 4.8z"/><path class="cls-1" d="M26.92 36.88h3.84v7.2h-3.84zm8.16-3.36h3.84v10.56h-3.84zm7.68 3.36h3.84v7.2h-3.84zm7.2-3.36h3.84v10.56h-3.84z"/><path class="cls-1" d="M37.43 29.47l7.76 4.97 10.73-7.76-1.12-1.55-9.67 6.99-7.6-4.87-13.45 6.92.89 1.7 12.46-6.4z"/><path class="cls-1" d="M62.08 20.8H17.92A1.93 1.93 0 0 0 16 22.72v27.84a1.92 1.92 0 0 0 1.92 1.92h44.16A1.92 1.92 0 0 0 64 50.56V22.72a1.93 1.93 0 0 0-1.92-1.92zm-1 25.92h-42.2v-23h42.24z"/></g></g></svg>