<svg xmlns="http://www.w3.org/2000/svg" viewBox="0 0 80 80"><defs><style>.cls-1{fill:#3ca0c4}</style></defs><title>article_marketing</title><g id="Layer_2" data-name="Layer 2"><g id="Layer_1-2" data-name="Layer 1"><path class="cls-1" d="M40 80a40 40 0 1 1 40-40 40 40 0 0 1-40 40zm0-75.2A35.2 35.2 0 1 0 75.2 40 35.24 35.24 0 0 0 40 4.8z"/><path class="cls-1" d="M58.34 17.36A1.37 1.37 0 0 0 57 16H23a1.37 1.37 0 0 0-1.36 1.36v45.28A1.37 1.37 0 0 0 23 64h34a1.27 1.27 0 0 0 .92-.36 1.27 1.27 0 0 0 .36-.92zm-2.72 43.92H24.38V18.72h31.24z"/><path class="cls-1" d="M28.08 23.92h10.24v1.92H28.08zm13.76-.24h10.32v9.6H41.84zm-13.76 4.08h10.24v1.92H28.08zm0 3.84h10.24v1.92H28.08zm0 3.84h24.08v1.92H28.08zm0 4.8h24.08v1.92H28.08zm18.66 10.57h-1a5.94 5.94 0 0 0-.62-1.49l.74-.74a.57.57 0 0 0 0-.82l-1.26-1.22a.56.56 0 0 0-.81 0l-.75.74a5.94 5.94 0 0 0-1.49-.62v-1A.57.57 0 0 0 41 45h-1.74a.57.57 0 0 0-.57.58v1a5.94 5.94 0 0 0-1.49.62l-.74-.74a.57.57 0 0 0-.82 0l-1.22 1.22a.57.57 0 0 0 0 .82l.74.74a5.94 5.94 0 0 0-.62 1.49h-1a.57.57 0 0 0-.58.57v1.73a.57.57 0 0 0 .58.56h1a5.94 5.94 0 0 0 .62 1.49l-.74.75a.56.56 0 0 0 0 .81l1.22 1.22a.56.56 0 0 0 .81 0l.75-.74a5.94 5.94 0 0 0 1.49.62v1a.57.57 0 0 0 .57.57H41a.57.57 0 0 0 .57-.57v-1A5.94 5.94 0 0 0 43 57.2l.74.74a.57.57 0 0 0 .82 0l1.22-1.22a.56.56 0 0 0 0-.81l-.74-.75a5.94 5.94 0 0 0 .62-1.49h1a.57.57 0 0 0 .58-.56v-1.73a.57.57 0 0 0-.5-.57zm-6.62 4.31A2.88 2.88 0 1 1 43 52.24a2.88 2.88 0 0 1-2.88 2.88z"/></g></g></svg>