<svg xmlns="http://www.w3.org/2000/svg" viewBox="0 0 80 80"><defs><style>.cls-1{fill:#a88c65}</style></defs><title>code_optimization</title><g id="Layer_2" data-name="Layer 2"><g id="Layer_1-2" data-name="Layer 1"><path class="cls-1" d="M40 80a40 40 0 1 1 40-40 40 40 0 0 1-40 40zm0-75.2A35.2 35.2 0 1 0 75.2 40 35.24 35.24 0 0 0 40 4.8z"/><path class="cls-1" d="M36 44.37v2.93l-10.4-4.52v-2.51L36 35.74v3l-7.27 2.8zm6.5-8.69l-2.91 12c-.1.39-.18.7-.25.93a1.13 1.13 0 0 1-.34.53 1 1 0 0 1-.65.2c-.7 0-1.05-.31-1.05-.92a9 9 0 0 1 .2-1.19l2.9-12a5.62 5.62 0 0 1 .43-1.3.86.86 0 0 1 .82-.36 1.17 1.17 0 0 1 .79.25.9.9 0 0 1 .27.69 6 6 0 0 1-.21 1.17zm11.9 7.1L44 47.33v-2.94l7.29-2.87L44 38.7v-2.92l10.4 4.51z"/><path class="cls-1" d="M61.12 18.88H18.88A2.88 2.88 0 0 0 16 21.76v36.48a2.88 2.88 0 0 0 2.88 2.88h42.24A2.88 2.88 0 0 0 64 58.24V21.76a2.88 2.88 0 0 0-2.88-2.88zm-7.2 1.92A1.92 1.92 0 1 1 52 22.72a1.92 1.92 0 0 1 1.92-1.92zm-5.28 0a1.92 1.92 0 1 1-1.92 1.92 1.92 1.92 0 0 1 1.92-1.92zm12.48 37.44H18.88V26.56h42.24zm-1.92-33.6a1.92 1.92 0 1 1 1.92-1.92 1.92 1.92 0 0 1-1.92 1.92z"/></g></g></svg>