<svg xmlns="http://www.w3.org/2000/svg" viewBox="0 0 80 80"><defs><style>.cls-1{fill:#9c76a9}</style></defs><title>google_places_optimization</title><g id="Layer_2" data-name="Layer 2"><g id="Layer_1-2" data-name="Layer 1"><path class="cls-1" d="M40 80a40 40 0 1 1 40-40 40 40 0 0 1-40 40zm0-75.2A35.2 35.2 0 1 0 75.2 40 35.24 35.24 0 0 0 40 4.8z"/><path class="cls-1" d="M54.09 21.8A19.94 19.94 0 0 0 25.9 50L40 64l14-14.09a19.84 19.84 0 0 0 .09-28.11zM40 52.84a17 17 0 1 1 17-17 17 17 0 0 1-17 17z"/><path class="cls-1" d="M39.05 23.68a1.6 1.6 0 0 1 2.42.48c.84 2.07 1.66 4.15 2.49 6.23 0 .07.08.09.15.09l6.24.47a1.67 1.67 0 0 1 1.46.88 1.55 1.55 0 0 1-.32 1.9 525.38 525.38 0 0 0-5 4.17.8.8 0 0 0-.13.13c.48 2.06 1 4.11 1.5 6.17a1.65 1.65 0 0 1-1.6 2.16 1.82 1.82 0 0 1-1-.42l-4.93-3.11a1.82 1.82 0 0 0-.43-.24c-1.9 1.12-3.74 2.29-5.59 3.41a1.65 1.65 0 0 1-1.7 0 1.54 1.54 0 0 1-.73-1.58c.54-2.2 1.14-4.38 1.65-6.58C32 36.53 30.49 35.25 29 34a2.38 2.38 0 0 1-.86-1 1.59 1.59 0 0 1 1.17-2.14c2.27-.19 4.55-.28 6.82-.48.78-1.88 1.54-3.76 2.31-5.64a2.22 2.22 0 0 1 .61-1.06z" id="_000000ff" data-name="#000000ff"/></g></g></svg>