<svg xmlns="http://www.w3.org/2000/svg" viewBox="0 0 80 80"><defs><style>.cls-1{fill:#e1b765}</style></defs><title>keyword_research</title><g id="Layer_2" data-name="Layer 2"><g id="Layer_1-2" data-name="Layer 1"><path class="cls-1" d="M40 80a40 40 0 1 1 40-40 40 40 0 0 1-40 40zm0-75.2A35.2 35.2 0 1 0 75.2 40 35.24 35.24 0 0 0 40 4.8z"/><path class="cls-1" d="M49.64 21.77a19.71 19.71 0 1 0-.81 28.63L50.4 52a2.79 2.79 0 0 0 .61 3l8.25 8.25a2.78 2.78 0 0 0 3.93-3.93L54.94 51a2.76 2.76 0 0 0-3-.62l-1.54-1.55a19.72 19.72 0 0 0-.76-27.06zM24.12 47.29a16.38 16.38 0 1 1 23.17 0 16.4 16.4 0 0 1-23.17 0z"/><path class="cls-1" d="M34.24 39.85l-1.71-1.7 4.72-4.73a5.79 5.79 0 1 0-2-2l-8.37 8.36a1 1 0 0 0 0 1.37l.69.68a1 1 0 0 0 1.36 0l1.6-1.59 1.71 1.7a1 1 0 0 0 1.36 0l.69-.68a1 1 0 0 0-.05-1.41zm3.21-14.15a3.87 3.87 0 1 1 0 5.47 3.87 3.87 0 0 1 0-5.47zM29 44.8l.58 2 .53-1.84a3 3 0 0 1 .12-.4.49.49 0 0 1 .16-.2.45.45 0 0 1 .3-.1.48.48 0 0 1 .31.1.46.46 0 0 1 .16.21c0 .07.07.2.13.39l.53 1.84.58-2a1.87 1.87 0 0 1 .1-.31.33.33 0 0 1 .12-.17.33.33 0 0 1 .24-.08.41.41 0 0 1 .28.11.35.35 0 0 1 .11.27 1.29 1.29 0 0 1-.1.41l-.72 2.13a3 3 0 0 1-.15.38.57.57 0 0 1-.16.22.5.5 0 0 1-.31.1.48.48 0 0 1-.32-.11.7.7 0 0 1-.17-.24 3.11 3.11 0 0 1-.12-.39l-.51-1.73-.49 1.73a1.75 1.75 0 0 1-.21.55.44.44 0 0 1-.4.18.62.62 0 0 1-.25-.05.55.55 0 0 1-.17-.17 2 2 0 0 1-.12-.25l-.08-.23L28.2 45a1.6 1.6 0 0 1-.11-.42.33.33 0 0 1 .12-.25.36.36 0 0 1 .28-.12.32.32 0 0 1 .3.13 2.09 2.09 0 0 1 .21.46zm5.37 0l.58 2 .52-1.84c.06-.2.1-.33.13-.4a.55.55 0 0 1 .15-.2.5.5 0 0 1 .31-.1.48.48 0 0 1 .31.1.46.46 0 0 1 .16.21 3.27 3.27 0 0 1 .12.39l.53 1.84.59-2c0-.15.07-.25.09-.31a.52.52 0 0 1 .12-.17.37.37 0 0 1 .25-.08.39.39 0 0 1 .27.11.36.36 0 0 1 .12.27 1.29 1.29 0 0 1-.1.41l-.73 2.13c-.06.17-.11.31-.14.38a.6.6 0 0 1-.17.22.45.45 0 0 1-.3.1.46.46 0 0 1-.32-.11.59.59 0 0 1-.17-.24 3.11 3.11 0 0 1-.12-.39l-.51-1.73-.49 1.73a2.44 2.44 0 0 1-.21.55.44.44 0 0 1-.4.18.49.49 0 0 1-.25-.05.4.4 0 0 1-.17-.17.83.83 0 0 1-.12-.25 1.06 1.06 0 0 1-.08-.23L33.62 45a1.6 1.6 0 0 1-.11-.42.36.36 0 0 1 .11-.25.38.38 0 0 1 .28-.12.31.31 0 0 1 .3.13 2 2 0 0 1 .17.46zm5.41 0l.58 2 .53-1.84c.06-.2.1-.33.13-.4a.46.46 0 0 1 .15-.2.48.48 0 0 1 .31-.1.5.5 0 0 1 .31.1.54.54 0 0 1 .16.21 3.27 3.27 0 0 1 .12.39l.53 1.84.58-2a1.87 1.87 0 0 1 .1-.31.33.33 0 0 1 .12-.17.36.36 0 0 1 .24-.08.41.41 0 0 1 .28.11.36.36 0 0 1 .12.27 1.66 1.66 0 0 1-.1.41l-.73 2.13a3 3 0 0 1-.15.38.57.57 0 0 1-.16.22.5.5 0 0 1-.31.1.48.48 0 0 1-.32-.11.7.7 0 0 1-.17-.24c0-.1-.08-.23-.12-.39l-.51-1.73-.47 1.73a1.75 1.75 0 0 1-.21.55.43.43 0 0 1-.4.18.62.62 0 0 1-.25-.05.55.55 0 0 1-.17-.17 2 2 0 0 1-.12-.25l-.08-.23L39 45a1.6 1.6 0 0 1-.11-.42.33.33 0 0 1 .12-.25.36.36 0 0 1 .28-.12.33.33 0 0 1 .3.13 1.63 1.63 0 0 1 .19.46z"/></g></g></svg>