<svg xmlns="http://www.w3.org/2000/svg" viewBox="0 0 80 80"><defs><style>.cls-1{fill:#76aa7a}</style></defs><title>landing_page</title><g id="Layer_2" data-name="Layer 2"><g id="Layer_1-2" data-name="Layer 1"><path class="cls-1" d="M40 80a40 40 0 1 1 40-40 40 40 0 0 1-40 40zm0-75.2A35.2 35.2 0 1 0 75.2 40 35.24 35.24 0 0 0 40 4.8z"/><path class="cls-1" d="M58 37.78c-.25-.94-2.65-1-3.62-.7l-10.51 3.5-12.21-4.86-1.28 1.37 5.21 6.25C32.23 44.5 26.08 46.64 25 47c-1 .32 6.2 1.34 7.85 1.07 0 0 12.63-4.12 18.21-6l4.31-1.43c.93-.29 2.88-1.85 2.63-2.86z"/><path class="cls-1" d="M22.98 42.56l-.98.91 2.59 3.01 3.75-1.32-5.36-2.6z"/><path class="cls-1" d="M61.12 18.88H18.88A2.88 2.88 0 0 0 16 21.76v36.48a2.88 2.88 0 0 0 2.88 2.88h42.24A2.88 2.88 0 0 0 64 58.24V21.76a2.88 2.88 0 0 0-2.88-2.88zm-7.2 1.92A1.92 1.92 0 1 1 52 22.72a1.92 1.92 0 0 1 1.92-1.92zm-5.28 0a1.92 1.92 0 1 1-1.92 1.92 1.92 1.92 0 0 1 1.92-1.92zm12.48 37.44H18.88V26.56h42.24zm-1.92-33.6a1.92 1.92 0 1 1 1.92-1.92 1.92 1.92 0 0 1-1.92 1.92z"/></g></g></svg>