<svg xmlns="http://www.w3.org/2000/svg" viewBox="0 0 80 80"><defs><style>.cls-1{fill:#afbc77}</style></defs><title>local_seo</title><g id="Layer_2" data-name="Layer 2"><g id="Layer_1-2" data-name="Layer 1"><path class="cls-1" d="M40 80a40 40 0 1 1 40-40 40 40 0 0 1-40 40zm0-75.2A35.2 35.2 0 1 0 75.2 40 35.24 35.24 0 0 0 40 4.8z"/><path class="cls-1" d="M49.64 21.77a19.71 19.71 0 1 0-.81 28.63L50.4 52a2.76 2.76 0 0 0 .62 3l8.24 8.25a2.78 2.78 0 0 0 3.93-3.93L54.94 51a2.76 2.76 0 0 0-3-.62l-1.54-1.55a19.72 19.72 0 0 0-.76-27.06zM24.12 47.29a16.38 16.38 0 1 1 23.17 0 16.4 16.4 0 0 1-23.17 0z"/><path class="cls-1" d="M42.22 25a9.23 9.23 0 0 0-13.04 13l6.5 6.46L42.2 38a9.17 9.17 0 0 0 .02-13zm-6.51 12a5.55 5.55 0 1 1 5.54-5.54A5.55 5.55 0 0 1 35.71 37z"/><path class="cls-1" d="M35.6 46.29a15.36 15.36 0 0 1 6.4 1.4 8.9 8.9 0 0 0-13 .07 15.44 15.44 0 0 1 6.6-1.47z"/></g></g></svg>