<svg xmlns="http://www.w3.org/2000/svg" viewBox="0 0 80 80"><defs><style>.cls-1{fill:#3d9ebe}</style></defs><title>mobile_marketing</title><g id="Layer_2" data-name="Layer 2"><g id="Layer_1-2" data-name="Layer 1"><path class="cls-1" d="M40 80a40 40 0 1 1 40-40 40 40 0 0 1-40 40zm0-75.2A35.2 35.2 0 1 0 75.2 40 35.24 35.24 0 0 0 40 4.8z"/><path class="cls-1" d="M61.48 31.18l-1 .4a6.15 6.15 0 0 0-1.14-1.14l.4-1a.58.58 0 0 0-.31-.75l-1.6-.66a.58.58 0 0 0-.75.31l-.41 1a5.43 5.43 0 0 0-1.61 0l-.4-1a.57.57 0 0 0-.74-.31l-1.6.66a.57.57 0 0 0-.31.75l.41 1a5.65 5.65 0 0 0-1.14 1.15l-1-.41a.58.58 0 0 0-.76.32l-.66 1.59a.57.57 0 0 0 .31.75l1 .41a6.2 6.2 0 0 0 0 1.61l-1 .4a.57.57 0 0 0-.32.75l.66 1.59a.57.57 0 0 0 .75.31l1-.4a5.55 5.55 0 0 0 1.14 1.13l-.4 1a.58.58 0 0 0 .31.75L54 42a.58.58 0 0 0 .75-.31l.4-1a5.79 5.79 0 0 0 1.61 0l.4 1a.58.58 0 0 0 .75.31l1.6-.66a.57.57 0 0 0 .3-.75l-.4-1a5.6 5.6 0 0 0 1.14-1.14l1 .4a.56.56 0 0 0 .75-.31l.6-1.54a.57.57 0 0 0-.32-.75l-1-.41a5.79 5.79 0 0 0 0-1.61l1-.4a.57.57 0 0 0 .32-.75l-.66-1.59a.58.58 0 0 0-.76-.31zM57 37.7a2.88 2.88 0 1 1 1.55-3.76A2.88 2.88 0 0 1 57 37.7z"/><path class="cls-1" d="M54.47 43.59v12.73H33.35V24.16h21.12v2.31h2.4v-6.63A3.84 3.84 0 0 0 53 16H34.79A3.84 3.84 0 0 0 31 19.84v40.32A3.84 3.84 0 0 0 34.79 64H53a3.84 3.84 0 0 0 3.84-3.84V43.59zM42 20.32h3.84a.48.48 0 1 1 0 1H42a.48.48 0 1 1 0-1zm1.76 41.41a1.92 1.92 0 1 1 1.92-1.92 1.92 1.92 0 0 1-1.91 1.92zm-26.7-33.48h11.52v2.4H17.06zm2.88 4.8h8.64v2.4h-8.64zm5.76 4.8h2.88v2.4H25.7z"/></g></g></svg>