<svg xmlns="http://www.w3.org/2000/svg" viewBox="0 0 80 80"><defs><style>.cls-1{fill:#a58d6b}</style></defs><title>page_speed</title><g id="Layer_2" data-name="Layer 2"><g id="Layer_1-2" data-name="Layer 1"><path class="cls-1" d="M40 80a40 40 0 1 1 40-40 40 40 0 0 1-40 40zm0-75.2A35.2 35.2 0 1 0 75.2 40 35.24 35.24 0 0 0 40 4.8z"/><path class="cls-1" d="M61.12 18.88H18.88A2.88 2.88 0 0 0 16 21.76v36.48a2.88 2.88 0 0 0 2.88 2.88h42.24A2.88 2.88 0 0 0 64 58.24V21.76a2.88 2.88 0 0 0-2.88-2.88zm-7.2 1.92A1.92 1.92 0 1 1 52 22.72a1.92 1.92 0 0 1 1.92-1.92zm-5.28 0a1.92 1.92 0 1 1-1.92 1.92 1.92 1.92 0 0 1 1.92-1.92zm12.48 37.44H18.88V26.56h42.24zm-1.92-33.6a1.92 1.92 0 1 1 1.92-1.92 1.92 1.92 0 0 1-1.92 1.92z"/><path class="cls-1" d="M39 31.71a8 8 0 0 1 2 0v5.54a17 17 0 0 0-2 0v-5.54zm-7.21 1.8c.61-.26 1.21-.52 1.83-.75q1.1 2.57 2.14 5.15c-.65.19-1.24.51-1.87.74-.68-1.72-1.44-3.41-2.1-5.14zm12.46 4.39c.7-1.72 1.4-3.43 2.14-5.13.62.21 1.22.47 1.82.73-.66 1.73-1.41 3.42-2.1 5.15-.62-.23-1.22-.54-1.86-.75zm-18.39.1a6.63 6.63 0 0 1 1.4-1.45c1.28 1.34 2.65 2.59 3.9 4a18.63 18.63 0 0 0-1.42 1.39c-1.28-1.33-2.59-2.61-3.88-3.94zm26.88-1.39A5.72 5.72 0 0 1 54.15 38c-1.29 1.31-2.6 2.6-3.89 3.9-.45-.5-.93-1-1.41-1.42 1.29-1.28 2.58-2.58 3.89-3.87zm-29.99 5.94c1.74.64 3.42 1.42 5.14 2.09-.21.64-.55 1.23-.74 1.87-1.71-.71-3.44-1.41-5.15-2.13.23-.62.49-1.23.75-1.83zm29.36 2.09c1.73-.67 3.41-1.45 5.14-2.09q.42.9.75 1.83-2.56 1.08-5.14 2.13c-.2-.64-.53-1.23-.75-1.87zM40.42 50a2.73 2.73 0 0 0-.5 0 2.4 2.4 0 1 0 2.4 2.43l4-6.15z"/></g></g></svg>