<svg xmlns="http://www.w3.org/2000/svg" viewBox="0 0 80 80"><defs><style>.cls-1{fill:#ddb860}</style></defs><title>ppc_optimization</title><g id="Layer_2" data-name="Layer 2"><g id="Layer_1-2" data-name="Layer 1"><path class="cls-1" d="M40 80a40 40 0 1 1 40-40 40 40 0 0 1-40 40zm0-75.2A35.2 35.2 0 1 0 75.2 40 35.24 35.24 0 0 0 40 4.8z"/><path class="cls-1" d="M64 52.63C63.81 52.48 39.2 39 39 38.9l13.73 25V52.6c3.75.02 7.51.03 11.27.03z"/><path class="cls-1" d="M40.38 45.61a8.71 8.71 0 0 1-2.85.5 8.55 8.55 0 1 1 8.08-5.87l2.67 1.46a11.4 11.4 0 0 0 .72-4.1 11.52 11.52 0 1 0-7.2 10.67z"/><path class="cls-1" d="M45.22 54.44a18.32 18.32 0 0 1-7.69 1.68 18.54 18.54 0 1 1 16.93-11l2.64 1.45a21.52 21.52 0 1 0-10.43 10.51z"/></g></g></svg>