<svg xmlns="http://www.w3.org/2000/svg" viewBox="0 0 80 80"><defs><style>.cls-1{fill:#42537f}</style></defs><title>quality_control</title><g id="Layer_2" data-name="Layer 2"><g id="Layer_1-2" data-name="Layer 1"><path class="cls-1" d="M40 80a40 40 0 1 1 40-40 40 40 0 0 1-40 40zm0-75.2A35.2 35.2 0 1 0 75.2 40 35.24 35.24 0 0 0 40 4.8z"/><path class="cls-1" d="M61.12 18.88H18.88A2.88 2.88 0 0 0 16 21.76v36.48a2.88 2.88 0 0 0 2.88 2.88h42.24A2.88 2.88 0 0 0 64 58.24V21.76a2.88 2.88 0 0 0-2.88-2.88zm-7.2 1.92A1.92 1.92 0 1 1 52 22.72a1.92 1.92 0 0 1 1.92-1.92zm-5.28 0a1.92 1.92 0 1 1-1.92 1.92 1.92 1.92 0 0 1 1.92-1.92zm12.48 37.44H18.88V26.56h42.24zm-1.92-33.6a1.92 1.92 0 1 1 1.92-1.92 1.92 1.92 0 0 1-1.92 1.92z"/><path class="cls-1" d="M40.2 30.9a.53.53 0 0 1 .58.22l.95 1.3a1.13 1.13 0 0 0 1.21.41c.54-.18 1.08-.36 1.62-.52a.5.5 0 0 1 .63.45v1.68a1.1 1.1 0 0 0 .71 1c.55.18 1.11.35 1.65.55a.5.5 0 0 1 .24.73c-.32.48-.66.93-1 1.4a1.11 1.11 0 0 0 0 1.19c.34.48.69.94 1 1.42a.51.51 0 0 1-.21.75c-.54.2-1.1.36-1.65.55a1.1 1.1 0 0 0-.72.91v1.79a.5.5 0 0 1-.62.48c-.55-.16-1.08-.35-1.62-.52a1.1 1.1 0 0 0-1.2.38c-.34.46-.66.93-1 1.38a.5.5 0 0 1-.78 0c-.34-.45-.67-.92-1-1.38a1.11 1.11 0 0 0-1.22-.37l-1.56.5a.51.51 0 0 1-.67-.47v-1.62a1.11 1.11 0 0 0-.73-1l-1.62-.53a.5.5 0 0 1-.25-.74c.31-.48.66-.93 1-1.39a1.1 1.1 0 0 0 0-1.25c-.33-.46-.67-.92-1-1.39a.51.51 0 0 1 .24-.74c.54-.19 1.09-.36 1.63-.53a1.13 1.13 0 0 0 .72-.91V32.8a.5.5 0 0 1 .63-.44c.54.16 1.08.35 1.63.52A1.12 1.12 0 0 0 39 32.4l.86-1.2a.73.73 0 0 1 .34-.3zm6.54 13.98c1.76 1.82 3.51 3.66 5.26 5.5h-4.5v4.5l-6.13-6.57a5.54 5.54 0 0 0 1-1.18c.35.08.68.22 1 .3a2.74 2.74 0 0 0 3.37-2.55zM28 50.38c1.56-1.63 3.1-3.28 4.67-4.89a2.74 2.74 0 0 0 2.59 2 5.25 5.25 0 0 0 1.74-.37 4.38 4.38 0 0 0 1.4 1.47l-5.9 6.29v-4.5z" id="_1e1e1cff" data-name="#1e1e1cff"/></g></g></svg>