<svg xmlns="http://www.w3.org/2000/svg" viewBox="0 0 80 80"><defs><style>.cls-1{fill:#927594}</style></defs><title>seo_performance</title><g id="Layer_2" data-name="Layer 2"><g id="Layer_1-2" data-name="Layer 1"><path class="cls-1" d="M40 80a40 40 0 1 1 40-40 40 40 0 0 1-40 40zm0-75.2A35.2 35.2 0 1 0 75.2 40 35.24 35.24 0 0 0 40 4.8z"/><path class="cls-1" d="M62.92 26.19l-5.84-5.1L51.24 16l-5.84 5.09-5.84 5.1H46C43.8 39.4 31.58 49.69 17.68 47.5a.49.49 0 0 0-.25.94c17.29 6 37.22-3.87 40.1-22.25z"/><path class="cls-1" d="M50 43.26a30.93 30.93 0 0 1-6 4.32V64h6zM35 64h6V49a33.08 33.08 0 0 1-6 1.9zm18 0h6V27.68h-.15A28.86 28.86 0 0 1 53 40.06V64zM23.06 51.34a34.27 34.27 0 0 1-6-1.44V64h6zM26.05 64h6V51.44a33.51 33.51 0 0 1-4.15.25h-1.83z"/></g></g></svg>