<svg xmlns="http://www.w3.org/2000/svg" viewBox="0 0 80 80"><defs><style>.cls-1{fill:#b0bd77}</style></defs><title>seo_tips</title><g id="Layer_2" data-name="Layer 2"><g id="Layer_1-2" data-name="Layer 1"><path class="cls-1" d="M40 80a40 40 0 1 1 40-40 40 40 0 0 1-40 40zm0-75.2A35.2 35.2 0 1 0 75.2 40 35.24 35.24 0 0 0 40 4.8z"/><path class="cls-1" d="M49.42 21.63a19.27 19.27 0 1 0-.79 28l1.53 1.53a2.73 2.73 0 0 0 .6 2.91l8.06 8.06a2.72 2.72 0 0 0 3.84-3.84l-8.06-8.07a2.71 2.71 0 0 0-2.9-.6l-1.53-1.53a19.29 19.29 0 0 0-.75-26.46zm-24.94 25a16 16 0 1 1 22.64 0 16 16 0 0 1-22.64-.05z"/><path class="cls-1" d="M34.22 36.1l-.46-6.87c-.08-1.34-.13-2.3-.13-2.88a2.62 2.62 0 0 1 .63-1.86 2.14 2.14 0 0 1 1.64-.66 1.65 1.65 0 0 1 1.65.85 5.73 5.73 0 0 1 .45 2.46c0 .63 0 1.27-.1 1.92l-.62 7.07a5.58 5.58 0 0 1-.43 1.93 1.13 1.13 0 0 1-1.09.68 1.09 1.09 0 0 1-1.08-.65 6.7 6.7 0 0 1-.46-1.99zm1.59 9.43a2.22 2.22 0 0 1-1.52-.53 2 2 0 0 1-.65-1.59 2 2 0 0 1 .62-1.51 2.1 2.1 0 0 1 1.53-.62 2.15 2.15 0 0 1 1.54.62 2.06 2.06 0 0 1 .67 1.48 2 2 0 0 1-.68 1.62 2.2 2.2 0 0 1-1.51.53zM26.03 57.1h19.54v2.17H26.03zm4.34 4.73h10.86V64H30.37z"/></g></g></svg>