<svg xmlns="http://www.w3.org/2000/svg" viewBox="0 0 80 80"><defs><style>.cls-1{fill:#37a2b6}</style></defs><title>target_audience</title><g id="Layer_2" data-name="Layer 2"><g id="Layer_1-2" data-name="Layer 1"><path class="cls-1" d="M40 80a40 40 0 1 1 40-40 40 40 0 0 1-40 40zm0-75.2A35.2 35.2 0 1 0 75.2 40 35.24 35.24 0 0 0 40 4.8z"/><path class="cls-1" d="M40 16a24 24 0 1 0 24 24 24 24 0 0 0-24-24zm1.44 45.07v-3.79h-2.88v3.79a21.17 21.17 0 0 1-19.63-19.63h3.79v-2.88h-3.78a21.15 21.15 0 0 1 19.62-19.63v3.79h2.88v-3.78a21.15 21.15 0 0 1 19.63 19.62h-3.79v2.88h3.79a21.17 21.17 0 0 1-19.63 19.63z"/><path class="cls-1" d="M29.94 44.57a18.75 18.75 0 0 1 4.73-2.1l.68-.26a5.68 5.68 0 0 0 .92-.37 1.66 1.66 0 0 0 0-.16 14.18 14.18 0 0 1-2.21-7.42 5.6 5.6 0 0 1 2-4.72 4.32 4.32 0 0 0-1.94-.39c-1.91 0-3.45.77-3.45 3.5A9.51 9.51 0 0 0 32.43 38v.3a1.09 1.09 0 0 1-.43.7 5.17 5.17 0 0 1-.94.39A16.19 16.19 0 0 0 27.17 41a3.69 3.69 0 0 0-1.25 1.88 6.8 6.8 0 0 0-.32 2.37h3.61a1.44 1.44 0 0 1 .73-.68zm22.89-3.52A16.19 16.19 0 0 0 49 39.43a6 6 0 0 1-1-.43 1.07 1.07 0 0 1-.41-.75 2.3 2.3 0 0 1 0-.45 9.7 9.7 0 0 0 1.59-5.21c0-2.73-1.55-3.5-3.46-3.5a4.2 4.2 0 0 0-2 .4 5.65 5.65 0 0 1 1.94 4.71 14.2 14.2 0 0 1-2.09 7.25.13.13 0 0 0 0 .06c0 .15.06.23.07.27a7.06 7.06 0 0 0 1 .41l.55.18a20.16 20.16 0 0 1 4.86 2.21c.24.16.47.19.69.67h3.66a6.8 6.8 0 0 0-.32-2.37 3.68 3.68 0 0 0-1.25-1.83z"/><path class="cls-1" d="M49.43 45.48a21.81 21.81 0 0 0-5.15-2.17 6.94 6.94 0 0 1-1.28-.54 1.45 1.45 0 0 1-.56-1c0-.2 0-.4-.07-.6a12.83 12.83 0 0 0 2.13-6.94c0-3.65-2.06-4.67-4.61-4.67s-4.61 1-4.61 4.67a12.62 12.62 0 0 0 2.27 7.12v.41a1.45 1.45 0 0 1-.56 1 6.86 6.86 0 0 1-1.25.52 21.61 21.61 0 0 0-5.15 2.16 4.87 4.87 0 0 0-1.67 2.48 10.12 10.12 0 0 0-.44 3.08h23a10.12 10.12 0 0 0-.42-3.12 4.76 4.76 0 0 0-1.63-2.4z"/></g></g></svg>