<svg xmlns="http://www.w3.org/2000/svg" viewBox="0 0 80 80"><defs><style>.cls-1{fill:#ef766d}</style></defs><title>video_marketing</title><g id="Layer_2" data-name="Layer 2"><g id="Layer_1-2" data-name="Layer 1"><path class="cls-1" d="M40 80a40 40 0 1 1 40-40 40 40 0 0 1-40 40zm0-75.2A35.2 35.2 0 1 0 75.2 40 35.24 35.24 0 0 0 40 4.8z"/><path class="cls-1" d="M49.8 41.92l-9.58 5.6-9.58 5.6v-22.4l9.58 5.6 9.58 5.6z"/><path class="cls-1" d="M61.12 18.88H18.88A2.88 2.88 0 0 0 16 21.76v36.48a2.88 2.88 0 0 0 2.88 2.88h42.24A2.88 2.88 0 0 0 64 58.24V21.76a2.88 2.88 0 0 0-2.88-2.88zm-7.2 1.92A1.92 1.92 0 1 1 52 22.72a1.92 1.92 0 0 1 1.92-1.92zm-5.28 0a1.92 1.92 0 1 1-1.92 1.92 1.92 1.92 0 0 1 1.92-1.92zm12.48 37.44H18.88V26.56h42.24zm-1.92-33.6a1.92 1.92 0 1 1 1.92-1.92 1.92 1.92 0 0 1-1.92 1.92z"/></g></g></svg>