<svg xmlns="http://www.w3.org/2000/svg" viewBox="0 0 18.65 20.55"><defs><style>.cls-1{fill:#07889b;stroke:#1cacaf;stroke-miterlimit:10;stroke-width:0.25px;}</style></defs><title>arrow-secondary</title><g id="Layer_2" data-name="Layer 2"><g id="Capa_1" data-name="Capa 1"><path class="cls-1" d="M.12,11.23a.48.48,0,0,1,.48-.48H3a.48.48,0,0,1,.48.48A5.83,5.83,0,1,0,9.32,5.4a5.66,5.66,0,0,0-1,.09V7.14a.48.48,0,0,1-.82.33L2.66,4.2a.48.48,0,0,1,0-.67L7.5.26A.48.48,0,0,1,8.31.6V2.09a8.68,8.68,0,0,1,1-.06,9.2,9.2,0,1,1-9.2,9.2Z"/></g></g></svg>