<svg xmlns="http://www.w3.org/2000/svg" viewBox="0 0 80 80"><defs><style>.cls-1{fill:#3ca0c4;}</style></defs><title>article_marketing</title><g id="Layer_2" data-name="Layer 2"><g id="Layer_1-2" data-name="Layer 1"><path class="cls-1" d="M40,80A40,40,0,1,1,80,40,40,40,0,0,1,40,80ZM40,4.8A35.2,35.2,0,1,0,75.2,40,35.24,35.24,0,0,0,40,4.8Z"/><path class="cls-1" d="M58.34,17.36A1.37,1.37,0,0,0,57,16H23a1.37,1.37,0,0,0-1.36,1.36V62.64A1.37,1.37,0,0,0,23,64H57a1.27,1.27,0,0,0,.92-.36l0,0,0,0a1.27,1.27,0,0,0,.36-.92ZM55.62,61.28H24.38V18.72H55.62Z"/><rect class="cls-1" x="28.08" y="23.92" width="10.24" height="1.92"/><rect class="cls-1" x="41.84" y="23.68" width="10.32" height="9.6"/><rect class="cls-1" x="28.08" y="27.76" width="10.24" height="1.92"/><rect class="cls-1" x="28.08" y="31.6" width="10.24" height="1.92"/><rect class="cls-1" x="28.08" y="35.44" width="24.08" height="1.92"/><rect class="cls-1" x="28.08" y="40.24" width="24.08" height="1.92"/><path class="cls-1" d="M46.74,50.81h-1a5.94,5.94,0,0,0-.62-1.49l.74-.74a.57.57,0,0,0,0-.82L44.6,46.54a.56.56,0,0,0-.81,0l-.75.74a5.94,5.94,0,0,0-1.49-.62v-1A.57.57,0,0,0,41,45H39.26a.57.57,0,0,0-.57.58v1a5.94,5.94,0,0,0-1.49.62l-.74-.74a.57.57,0,0,0-.82,0l-1.22,1.22a.57.57,0,0,0,0,.82l.74.74a5.94,5.94,0,0,0-.62,1.49h-1a.57.57,0,0,0-.58.57v1.73a.57.57,0,0,0,.58.56h1a5.94,5.94,0,0,0,.62,1.49l-.74.75a.56.56,0,0,0,0,.81l1.22,1.22a.56.56,0,0,0,.81,0l.75-.74a5.94,5.94,0,0,0,1.49.62v1a.57.57,0,0,0,.57.57H41a.57.57,0,0,0,.57-.57v-1A5.94,5.94,0,0,0,43,57.2l.74.74a.57.57,0,0,0,.82,0l1.22-1.22a.56.56,0,0,0,0-.81l-.74-.75a5.94,5.94,0,0,0,.62-1.49h1a.57.57,0,0,0,.58-.56V51.38A.57.57,0,0,0,46.74,50.81Zm-6.62,4.31A2.88,2.88,0,1,1,43,52.24,2.88,2.88,0,0,1,40.12,55.12Z"/></g></g></svg>