<svg xmlns="http://www.w3.org/2000/svg" viewBox="0 0 80 80"><defs><style>.cls-1{fill:#a88c65;}</style></defs><title>code_optimization</title><g id="Layer_2" data-name="Layer 2"><g id="Layer_1-2" data-name="Layer 1"><path class="cls-1" d="M40,80A40,40,0,1,1,80,40,40,40,0,0,1,40,80ZM40,4.8A35.2,35.2,0,1,0,75.2,40,35.24,35.24,0,0,0,40,4.8Z"/><path class="cls-1" d="M36,44.37V47.3L25.6,42.78V40.27L36,35.74v3l-7.27,2.8Z"/><path class="cls-1" d="M42.5,35.68l-2.91,12c-.1.39-.18.7-.25.93a1.13,1.13,0,0,1-.34.53,1,1,0,0,1-.65.2c-.7,0-1.05-.31-1.05-.92a9,9,0,0,1,.2-1.19l2.9-12a5.62,5.62,0,0,1,.43-1.3.86.86,0,0,1,.82-.36,1.17,1.17,0,0,1,.79.25.9.9,0,0,1,.27.69A6,6,0,0,1,42.5,35.68Z"/><path class="cls-1" d="M54.4,42.78,44,47.33V44.39l7.29-2.87L44,38.7V35.78L54.4,40.29Z"/><path class="cls-1" d="M61.12,18.88H18.88A2.88,2.88,0,0,0,16,21.76V58.24a2.88,2.88,0,0,0,2.88,2.88H61.12A2.88,2.88,0,0,0,64,58.24V21.76A2.88,2.88,0,0,0,61.12,18.88Zm-7.2,1.92A1.92,1.92,0,1,1,52,22.72,1.92,1.92,0,0,1,53.92,20.8Zm-5.28,0a1.92,1.92,0,1,1-1.92,1.92A1.92,1.92,0,0,1,48.64,20.8ZM61.12,58.24H18.88V26.56H61.12ZM59.2,24.64a1.92,1.92,0,1,1,1.92-1.92A1.92,1.92,0,0,1,59.2,24.64Z"/></g></g></svg>