<svg xmlns="http://www.w3.org/2000/svg" viewBox="0 0 80 80"><defs><style>.cls-1{fill:#76aa7a;}</style></defs><title>landing_page</title><g id="Layer_2" data-name="Layer 2"><g id="Layer_1-2" data-name="Layer 1"><path class="cls-1" d="M40,80A40,40,0,1,1,80,40,40,40,0,0,1,40,80ZM40,4.8A35.2,35.2,0,1,0,75.2,40,35.24,35.24,0,0,0,40,4.8Z"/><path class="cls-1" d="M58,37.78c-.25-.94-2.65-1-3.62-.7l-10.51,3.5L31.66,35.72l-1.28,1.37,5.21,6.25C32.23,44.5,26.08,46.64,25,47c-1,.32,6.2,1.34,7.85,1.07,0,0,12.63-4.12,18.21-6l4.31-1.43C56.3,40.35,58.25,38.79,58,37.78Z"/><polygon class="cls-1" points="22.98 42.56 22 43.47 24.59 46.48 28.34 45.16 22.98 42.56"/><path class="cls-1" d="M61.12,18.88H18.88A2.88,2.88,0,0,0,16,21.76V58.24a2.88,2.88,0,0,0,2.88,2.88H61.12A2.88,2.88,0,0,0,64,58.24V21.76A2.88,2.88,0,0,0,61.12,18.88Zm-7.2,1.92A1.92,1.92,0,1,1,52,22.72,1.92,1.92,0,0,1,53.92,20.8Zm-5.28,0a1.92,1.92,0,1,1-1.92,1.92A1.92,1.92,0,0,1,48.64,20.8ZM61.12,58.24H18.88V26.56H61.12ZM59.2,24.64a1.92,1.92,0,1,1,1.92-1.92A1.92,1.92,0,0,1,59.2,24.64Z"/></g></g></svg>