<svg xmlns="http://www.w3.org/2000/svg" viewBox="0 0 80 80"><defs><style>.cls-1{fill:#f4756f;}</style></defs><title>link_building</title><g id="Layer_2" data-name="Layer 2"><g id="Layer_1-2" data-name="Layer 1"><path class="cls-1" d="M40,80A40,40,0,1,1,80,40,40,40,0,0,1,40,80ZM40,4.8A35.2,35.2,0,1,0,75.2,40,35.24,35.24,0,0,0,40,4.8Z"/><path class="cls-1" d="M36.84,44.52,30.32,51a6.36,6.36,0,0,1-9-.37,6.38,6.38,0,0,1-.38-9l7.38-7.38a6.38,6.38,0,0,1,9,.37,7,7,0,0,1,2,3.84,4.19,4.19,0,0,0,2.55-1.19l.28-.27a10.12,10.12,0,0,0-2.62-4.55,9.46,9.46,0,0,0-13.34-.38L18.79,39.5a9.46,9.46,0,0,0,.38,13.34,9.45,9.45,0,0,0,13.33.37l7.38-7.38A8.23,8.23,0,0,0,41,44.48,11.08,11.08,0,0,1,36.84,44.52Z"/><path class="cls-1" d="M38.79,19.5l-7.38,7.38a8.78,8.78,0,0,0-1.1,1.35,11.14,11.14,0,0,1,4.15,0L41,21.68a6.38,6.38,0,0,1,9,.38,6.36,6.36,0,0,1,.38,9l-7.39,7.38A6.37,6.37,0,0,1,34,38a6.92,6.92,0,0,1-2-3.84,4.13,4.13,0,0,0-2.56,1.19l-.27.27a10.06,10.06,0,0,0,2.62,4.56,9.44,9.44,0,0,0,13.33.37l7.38-7.38a9.44,9.44,0,0,0-.37-13.33A9.46,9.46,0,0,0,38.79,19.5Z"/><path class="cls-1" d="M54,43.58A10.28,10.28,0,1,0,64.22,53.86,10.28,10.28,0,0,0,54,43.58ZM60,56h-3.8v3.82a2.17,2.17,0,0,1-4.34,0V56H48a2.17,2.17,0,1,1,0-4.34h3.8V47.85a2.17,2.17,0,1,1,4.34,0v3.78H60A2.17,2.17,0,1,1,60,56Z"/></g></g></svg>