<svg xmlns="http://www.w3.org/2000/svg" viewBox="0 0 80 80"><defs><style>.cls-1{fill:#afbc77;}</style></defs><title>local_seo</title><g id="Layer_2" data-name="Layer 2"><g id="Layer_1-2" data-name="Layer 1"><path class="cls-1" d="M40,80A40,40,0,1,1,80,40,40,40,0,0,1,40,80ZM40,4.8A35.2,35.2,0,1,0,75.2,40,35.24,35.24,0,0,0,40,4.8Z"/><path class="cls-1" d="M49.64,21.77a19.71,19.71,0,1,0-.81,28.63L50.4,52a2.76,2.76,0,0,0,.62,3l8.24,8.25a2.78,2.78,0,0,0,3.93-3.93L54.94,51a2.76,2.76,0,0,0-3-.62L50.4,48.83A19.72,19.72,0,0,0,49.64,21.77ZM24.12,47.29a16.38,16.38,0,1,1,23.17,0A16.4,16.4,0,0,1,24.12,47.29Z"/><path class="cls-1" d="M42.22,25A9.23,9.23,0,0,0,29.18,38l6.5,6.46L42.2,38A9.17,9.17,0,0,0,42.22,25ZM35.71,37a5.55,5.55,0,1,1,5.54-5.54A5.55,5.55,0,0,1,35.71,37Z"/><path class="cls-1" d="M35.6,46.29A15.36,15.36,0,0,1,42,47.69a8.9,8.9,0,0,0-13,.07A15.44,15.44,0,0,1,35.6,46.29Z"/></g></g></svg>