<svg xmlns="http://www.w3.org/2000/svg" viewBox="0 0 80 80"><defs><style>.cls-1{fill:#3d9ebe;}</style></defs><title>mobile_marketing</title><g id="Layer_2" data-name="Layer 2"><g id="Layer_1-2" data-name="Layer 1"><path class="cls-1" d="M40,80A40,40,0,1,1,80,40,40,40,0,0,1,40,80ZM40,4.8A35.2,35.2,0,1,0,75.2,40,35.24,35.24,0,0,0,40,4.8Z"/><path class="cls-1" d="M61.48,31.18l-1,.4a6.15,6.15,0,0,0-1.14-1.14l.4-1a.58.58,0,0,0-.31-.75l-1.6-.66a.58.58,0,0,0-.75.31l-.41,1a5.43,5.43,0,0,0-1.61,0l-.4-1a.57.57,0,0,0-.74-.31l-1.6.66a.57.57,0,0,0-.31.75l.41,1a5.65,5.65,0,0,0-1.14,1.15l-1-.41a.58.58,0,0,0-.76.32l-.66,1.59a.57.57,0,0,0,.31.75l1,.41a6.2,6.2,0,0,0,0,1.61l-1,.4a.57.57,0,0,0-.32.75l.66,1.59a.57.57,0,0,0,.75.31l1-.4a5.55,5.55,0,0,0,1.14,1.13l-.4,1a.58.58,0,0,0,.31.75L54,42a.58.58,0,0,0,.75-.31l.4-1a5.79,5.79,0,0,0,1.61,0l.4,1a.58.58,0,0,0,.75.31l1.6-.66a.57.57,0,0,0,.3-.75l-.4-1a5.6,5.6,0,0,0,1.14-1.14l1,.4a.56.56,0,0,0,.75-.31L62.9,37a.57.57,0,0,0-.32-.75l-1-.41a5.79,5.79,0,0,0,0-1.61l1-.4a.57.57,0,0,0,.32-.75l-.66-1.59A.58.58,0,0,0,61.48,31.18ZM57,37.7a2.88,2.88,0,1,1,1.55-3.76A2.88,2.88,0,0,1,57,37.7Z"/><path class="cls-1" d="M54.47,43.59V56.32H33.35V24.16H54.47v2.31h2.4V19.84A3.84,3.84,0,0,0,53,16H34.79A3.84,3.84,0,0,0,31,19.84V60.16A3.84,3.84,0,0,0,34.79,64H53a3.84,3.84,0,0,0,3.84-3.84V43.59ZM42,20.32h3.84a.48.48,0,1,1,0,1H42a.48.48,0,1,1,0-1Zm1.76,41.41a1.92,1.92,0,1,1,1.92-1.92A1.92,1.92,0,0,1,43.77,61.73Z"/><rect class="cls-1" x="17.06" y="28.25" width="11.52" height="2.4"/><rect class="cls-1" x="19.94" y="33.05" width="8.64" height="2.4"/><rect class="cls-1" x="25.7" y="37.85" width="2.88" height="2.4"/></g></g></svg>