<svg xmlns="http://www.w3.org/2000/svg" viewBox="0 0 80 80"><defs><style>.cls-1{fill:#a58d6b;}</style></defs><title>page_speed</title><g id="Layer_2" data-name="Layer 2"><g id="Layer_1-2" data-name="Layer 1"><path class="cls-1" d="M40,80A40,40,0,1,1,80,40,40,40,0,0,1,40,80ZM40,4.8A35.2,35.2,0,1,0,75.2,40,35.24,35.24,0,0,0,40,4.8Z"/><path class="cls-1" d="M61.12,18.88H18.88A2.88,2.88,0,0,0,16,21.76V58.24a2.88,2.88,0,0,0,2.88,2.88H61.12A2.88,2.88,0,0,0,64,58.24V21.76A2.88,2.88,0,0,0,61.12,18.88Zm-7.2,1.92A1.92,1.92,0,1,1,52,22.72,1.92,1.92,0,0,1,53.92,20.8Zm-5.28,0a1.92,1.92,0,1,1-1.92,1.92A1.92,1.92,0,0,1,48.64,20.8ZM61.12,58.24H18.88V26.56H61.12ZM59.2,24.64a1.92,1.92,0,1,1,1.92-1.92A1.92,1.92,0,0,1,59.2,24.64Z"/><path class="cls-1" d="M39,31.71a8,8,0,0,1,2,0v5.54a17,17,0,0,0-2,0C39,35.42,39,33.56,39,31.71Z"/><path class="cls-1" d="M31.79,33.51c.61-.26,1.21-.52,1.83-.75q1.1,2.57,2.14,5.15c-.65.19-1.24.51-1.87.74C33.21,36.93,32.45,35.24,31.79,33.51Z"/><path class="cls-1" d="M44.25,37.9c.7-1.72,1.4-3.43,2.14-5.13.62.21,1.22.47,1.82.73-.66,1.73-1.41,3.42-2.1,5.15C45.49,38.42,44.89,38.11,44.25,37.9Z"/><path class="cls-1" d="M25.86,38a6.63,6.63,0,0,1,1.4-1.45c1.28,1.34,2.65,2.59,3.9,4a18.63,18.63,0,0,0-1.42,1.39C28.46,40.61,27.15,39.33,25.86,38Z"/><path class="cls-1" d="M52.74,36.61A5.72,5.72,0,0,1,54.15,38c-1.29,1.31-2.6,2.6-3.89,3.9-.45-.5-.93-1-1.41-1.42C50.14,39.2,51.43,37.9,52.74,36.61Z"/><path class="cls-1" d="M22.75,42.55c1.74.64,3.42,1.42,5.14,2.09-.21.64-.55,1.23-.74,1.87-1.71-.71-3.44-1.41-5.15-2.13C22.23,43.76,22.49,43.15,22.75,42.55Z"/><path class="cls-1" d="M52.11,44.64c1.73-.67,3.41-1.45,5.14-2.09q.42.9.75,1.83-2.56,1.08-5.14,2.13C52.66,45.87,52.33,45.28,52.11,44.64Z"/><path class="cls-1" d="M40.42,50a2.73,2.73,0,0,0-.5,0,2.4,2.4,0,1,0,2.4,2.43l4-6.15Z"/></g></g></svg>