<svg xmlns="http://www.w3.org/2000/svg" viewBox="0 0 80 80"><defs><style>.cls-1{fill:#ddb860;}</style></defs><title>ppc_optimization</title><g id="Layer_2" data-name="Layer 2"><g id="Layer_1-2" data-name="Layer 1"><path class="cls-1" d="M40,80A40,40,0,1,1,80,40,40,40,0,0,1,40,80ZM40,4.8A35.2,35.2,0,1,0,75.2,40,35.24,35.24,0,0,0,40,4.8Z"/><path class="cls-1" d="M64,52.63C63.81,52.48,39.2,39,39,38.9l13.73,25c0-3.77,0-7.53,0-11.3C56.48,52.62,60.24,52.63,64,52.63Z"/><path class="cls-1" d="M40.38,45.61a8.71,8.71,0,0,1-2.85.5,8.55,8.55,0,1,1,8.08-5.87l2.67,1.46A11.4,11.4,0,0,0,49,37.6a11.52,11.52,0,1,0-7.2,10.67Z"/><path class="cls-1" d="M45.22,54.44a18.32,18.32,0,0,1-7.69,1.68,18.54,18.54,0,1,1,16.93-11l2.64,1.45A21.52,21.52,0,1,0,46.67,57.08Z"/></g></g></svg>