<svg xmlns="http://www.w3.org/2000/svg" viewBox="0 0 80 80"><defs><style>.cls-1{fill:#42537f;}</style></defs><title>quality_control</title><g id="Layer_2" data-name="Layer 2"><g id="Layer_1-2" data-name="Layer 1"><path class="cls-1" d="M40,80A40,40,0,1,1,80,40,40,40,0,0,1,40,80ZM40,4.8A35.2,35.2,0,1,0,75.2,40,35.24,35.24,0,0,0,40,4.8Z"/><path class="cls-1" d="M61.12,18.88H18.88A2.88,2.88,0,0,0,16,21.76V58.24a2.88,2.88,0,0,0,2.88,2.88H61.12A2.88,2.88,0,0,0,64,58.24V21.76A2.88,2.88,0,0,0,61.12,18.88Zm-7.2,1.92A1.92,1.92,0,1,1,52,22.72,1.92,1.92,0,0,1,53.92,20.8Zm-5.28,0a1.92,1.92,0,1,1-1.92,1.92A1.92,1.92,0,0,1,48.64,20.8ZM61.12,58.24H18.88V26.56H61.12ZM59.2,24.64a1.92,1.92,0,1,1,1.92-1.92A1.92,1.92,0,0,1,59.2,24.64Z"/><g id="_1e1e1cff" data-name="#1e1e1cff"><path class="cls-1" d="M40.2,30.9a.53.53,0,0,1,.58.22l.95,1.3a1.13,1.13,0,0,0,1.21.41c.54-.18,1.08-.36,1.62-.52a.5.5,0,0,1,.63.45c0,.56,0,1.12,0,1.68a1.1,1.1,0,0,0,.71,1c.55.18,1.11.35,1.65.55a.5.5,0,0,1,.24.73c-.32.48-.66.93-1,1.4a1.11,1.11,0,0,0,0,1.19c.34.48.69.94,1,1.42a.51.51,0,0,1-.21.75c-.54.2-1.1.36-1.65.55a1.1,1.1,0,0,0-.72.91c0,.59,0,1.19,0,1.79a.5.5,0,0,1-.62.48c-.55-.16-1.08-.35-1.62-.52a1.1,1.1,0,0,0-1.2.38c-.34.46-.66.93-1,1.38a.5.5,0,0,1-.78,0c-.34-.45-.67-.92-1-1.38a1.11,1.11,0,0,0-1.22-.37l-1.56.5a.51.51,0,0,1-.67-.47V43.11a1.11,1.11,0,0,0-.73-1l-1.62-.53a.5.5,0,0,1-.25-.74c.31-.48.66-.93,1-1.39a1.1,1.1,0,0,0,0-1.25c-.33-.46-.67-.92-1-1.39a.51.51,0,0,1,.24-.74c.54-.19,1.09-.36,1.63-.53a1.13,1.13,0,0,0,.72-.91c0-.61,0-1.22,0-1.83a.5.5,0,0,1,.63-.44c.54.16,1.08.35,1.63.52A1.12,1.12,0,0,0,39,32.4l.86-1.2A.73.73,0,0,1,40.2,30.9Z"/><path class="cls-1" d="M46.74,44.88c1.76,1.82,3.51,3.66,5.26,5.5H47.5c0,1.5,0,3,0,4.5l-6.13-6.57a5.54,5.54,0,0,0,1-1.18c.35.08.68.22,1,.3a2.74,2.74,0,0,0,3.37-2.55Z"/><path class="cls-1" d="M28,50.38c1.56-1.63,3.1-3.28,4.67-4.89a2.74,2.74,0,0,0,2.59,2A5.25,5.25,0,0,0,37,47.12a4.38,4.38,0,0,0,1.4,1.47L32.5,54.88c0-1.5,0-3,0-4.5Z"/></g></g></g></svg>