<svg xmlns="http://www.w3.org/2000/svg" viewBox="0 0 80 80"><defs><style>.cls-1{fill:#ee756c;}</style></defs><title>search</title><g id="Layer_2" data-name="Layer 2"><g id="Layer_1-2" data-name="Layer 1"><path class="cls-1" d="M40,80A40,40,0,1,1,80,40,40,40,0,0,1,40,80ZM40,4.8A35.2,35.2,0,1,0,75.2,40,35.24,35.24,0,0,0,40,4.8Z"/><path class="cls-1" d="M49.64,21.76a19.71,19.71,0,1,0-.81,28.64L50.4,52a2.77,2.77,0,0,0,.61,3l8.25,8.25a2.78,2.78,0,0,0,3.93-3.93L54.94,51a2.76,2.76,0,0,0-3-.62L50.4,48.83A19.73,19.73,0,0,0,49.64,21.76ZM24.12,47.29a16.38,16.38,0,1,1,23.17,0A16.4,16.4,0,0,1,24.12,47.29Z"/><path class="cls-1" d="M28,27.87a26.2,26.2,0,0,1,9.44-6.08A15.22,15.22,0,0,0,21.84,37.58,26.23,26.23,0,0,1,28,27.87Z"/></g></g></svg>