<svg xmlns="http://www.w3.org/2000/svg" viewBox="0 0 80 80"><defs><style>.cls-1{fill:#ec766c;}</style></defs><title>seo_tag</title><g id="Layer_2" data-name="Layer 2"><g id="Layer_1-2" data-name="Layer 1"><path class="cls-1" d="M40,80A40,40,0,1,1,80,40,40,40,0,0,1,40,80ZM40,4.8A35.2,35.2,0,1,0,75.2,40,35.24,35.24,0,0,0,40,4.8Z"/><path class="cls-1" d="M53.07,26.93a1.18,1.18,0,0,0,1.67,0L63.65,18A1.18,1.18,0,0,0,62,16.35l-8.91,8.91A1.18,1.18,0,0,0,53.07,26.93Z"/><path class="cls-1" d="M46.5,32.59a4.89,4.89,0,0,0-1.64-1.13,2.73,2.73,0,0,0-1.63-.15,2.88,2.88,0,0,0-1.4.8,2.75,2.75,0,0,0-.65,1A2.4,2.4,0,0,0,41,34.23a3.38,3.38,0,0,0,.38,1.24,5.66,5.66,0,0,0,1,1.27,5.29,5.29,0,0,0,1.28,1,3.25,3.25,0,0,0,1.27.39,2.58,2.58,0,0,0,1.15-.16,2.71,2.71,0,0,0,1-.65A2.85,2.85,0,0,0,47.8,36a2.72,2.72,0,0,0-.12-1.63A4.84,4.84,0,0,0,46.5,32.59Z"/><path class="cls-1" d="M61.5,25.19l-1.67-1.67-2.1,2.1a4.33,4.33,0,1,1-3.35-3.35l2.1-2.1L54.81,18.5c-1.15-1.15-13.05-1.15-14.2,0L16.87,42.25a2.93,2.93,0,0,0,0,4.17L33.58,63.13a2.93,2.93,0,0,0,4.17,0L61.5,39.39C62.65,38.24,62.65,26.34,61.5,25.19ZM35.31,50.77a5.35,5.35,0,0,1-1.26,1.85A4.9,4.9,0,0,1,31.86,54a3.29,3.29,0,0,1-1.59,0A2.52,2.52,0,0,1,29,53.38a.91.91,0,0,1,0-1.32.79.79,0,0,1,.54-.24,1.75,1.75,0,0,1,.72.16,4.49,4.49,0,0,0,.88.29A1.74,1.74,0,0,0,32,52.2a2.34,2.34,0,0,0,.92-.62,2.49,2.49,0,0,0,.77-1.37A1.33,1.33,0,0,0,33.33,49a1.17,1.17,0,0,0-.81-.37,2.15,2.15,0,0,0-.92.23,11.7,11.7,0,0,0-1.19.69,10.16,10.16,0,0,1-1.74.88,3,3,0,0,1-1.51.17,2.73,2.73,0,0,1-2.11-2.15,2.9,2.9,0,0,1,.23-1.66,5.59,5.59,0,0,1,1.21-1.72,5.39,5.39,0,0,1,1.33-1,3.53,3.53,0,0,1,1.25-.37,2.73,2.73,0,0,1,1.06.11,2,2,0,0,1,.74.44,1,1,0,0,1,.28.66.82.82,0,0,1-.25.68.79.79,0,0,1-.51.26,2.5,2.5,0,0,1-.7-.13,2.73,2.73,0,0,0-1.12-.17,2,2,0,0,0-1.13.66,2.21,2.21,0,0,0-.67,1.18,1,1,0,0,0,.25,1,.87.87,0,0,0,.5.26,1.39,1.39,0,0,0,.6,0,3.27,3.27,0,0,0,.6-.25l.9-.51a13.4,13.4,0,0,1,1.43-.8,4.76,4.76,0,0,1,1.27-.43,2.48,2.48,0,0,1,1.18.08,2.86,2.86,0,0,1,1.13.74A3.08,3.08,0,0,1,35.48,49,3.31,3.31,0,0,1,35.31,50.77ZM43,43.44l-4,4a1.38,1.38,0,0,1-.91.48,1.32,1.32,0,0,1-.9-.48L31.69,42a1.7,1.7,0,0,1-.43-.62.85.85,0,0,1,0-.59,1.93,1.93,0,0,1,.43-.6l3.9-3.9a1.08,1.08,0,0,1,.68-.37.74.74,0,0,1,.58.24.76.76,0,0,1,.24.59,1.09,1.09,0,0,1-.36.68L33.4,40.72l1.79,1.79,3.06-3.06a1.08,1.08,0,0,1,.66-.35.73.73,0,0,1,.56.23.78.78,0,0,1,.25.57,1.07,1.07,0,0,1-.35.67L36.3,43.63l2.08,2.07,3.44-3.44a1.06,1.06,0,0,1,.68-.36.84.84,0,0,1,.85.85A1.11,1.11,0,0,1,43,43.44Zm6.49-6.79a6.25,6.25,0,0,1-3.06,3.05,4.18,4.18,0,0,1-1.91.35,4.55,4.55,0,0,1-1.89-.52,6.9,6.9,0,0,1-1.76-1.3,6.7,6.7,0,0,1-1.3-1.78,4.75,4.75,0,0,1-.5-1.89,4.23,4.23,0,0,1,.37-1.87,5.6,5.6,0,0,1,1.23-1.75,5.46,5.46,0,0,1,2.4-1.49,4.24,4.24,0,0,1,2.54.08A6.37,6.37,0,0,1,48,31.1a7,7,0,0,1,1.31,1.77,4.6,4.6,0,0,1,.51,1.88A4.2,4.2,0,0,1,49.48,36.65Z"/></g></g></svg>