<svg xmlns="http://www.w3.org/2000/svg" viewBox="0 0 80 80"><defs><style>.cls-1{fill:#b0bd77;}</style></defs><title>seo_tips</title><g id="Layer_2" data-name="Layer 2"><g id="Layer_1-2" data-name="Layer 1"><path class="cls-1" d="M40,80A40,40,0,1,1,80,40,40,40,0,0,1,40,80ZM40,4.8A35.2,35.2,0,1,0,75.2,40,35.24,35.24,0,0,0,40,4.8Z"/><path class="cls-1" d="M49.42,21.63a19.27,19.27,0,1,0-.79,28l1.53,1.53a2.73,2.73,0,0,0,.6,2.91l8.06,8.06a2.72,2.72,0,0,0,3.84-3.84L54.6,50.22a2.71,2.71,0,0,0-2.9-.6l-1.53-1.53A19.29,19.29,0,0,0,49.42,21.63Zm-24.94,25a16,16,0,1,1,22.64,0A16,16,0,0,1,24.48,46.58Z"/><path class="cls-1" d="M34.22,36.1l-.46-6.87c-.08-1.34-.13-2.3-.13-2.88a2.62,2.62,0,0,1,.63-1.86,2.14,2.14,0,0,1,1.64-.66,1.65,1.65,0,0,1,1.65.85A5.73,5.73,0,0,1,38,27.14c0,.63,0,1.27-.1,1.92l-.62,7.07a5.58,5.58,0,0,1-.43,1.93,1.13,1.13,0,0,1-1.09.68,1.09,1.09,0,0,1-1.08-.65A6.7,6.7,0,0,1,34.22,36.1Zm1.59,9.43A2.22,2.22,0,0,1,34.29,45a2,2,0,0,1-.65-1.59,2,2,0,0,1,.62-1.51,2.1,2.1,0,0,1,1.53-.62,2.15,2.15,0,0,1,1.54.62A2.06,2.06,0,0,1,38,43.38,2,2,0,0,1,37.32,45,2.2,2.2,0,0,1,35.81,45.53Z"/><rect class="cls-1" x="26.03" y="57.1" width="19.54" height="2.17"/><rect class="cls-1" x="30.37" y="61.83" width="10.86" height="2.17"/></g></g></svg>