<svg xmlns="http://www.w3.org/2000/svg" viewBox="0 0 80 80"><defs><style>.cls-1{fill:#ef766d;}</style></defs><title>video_marketing</title><g id="Layer_2" data-name="Layer 2"><g id="Layer_1-2" data-name="Layer 1"><path class="cls-1" d="M40,80A40,40,0,1,1,80,40,40,40,0,0,1,40,80ZM40,4.8A35.2,35.2,0,1,0,75.2,40,35.24,35.24,0,0,0,40,4.8Z"/><polygon class="cls-1" points="49.8 41.92 40.22 47.52 30.64 53.12 30.64 41.92 30.64 30.72 40.22 36.32 49.8 41.92"/><path class="cls-1" d="M61.12,18.88H18.88A2.88,2.88,0,0,0,16,21.76V58.24a2.88,2.88,0,0,0,2.88,2.88H61.12A2.88,2.88,0,0,0,64,58.24V21.76A2.88,2.88,0,0,0,61.12,18.88Zm-7.2,1.92A1.92,1.92,0,1,1,52,22.72,1.92,1.92,0,0,1,53.92,20.8Zm-5.28,0a1.92,1.92,0,1,1-1.92,1.92A1.92,1.92,0,0,1,48.64,20.8ZM61.12,58.24H18.88V26.56H61.12ZM59.2,24.64a1.92,1.92,0,1,1,1.92-1.92A1.92,1.92,0,0,1,59.2,24.64Z"/></g></g></svg>