<svg xmlns="http://www.w3.org/2000/svg" viewBox="0 0 80 80"><defs><style>.cls-1{fill:#9c76a9;}</style></defs><title>website_optimization</title><g id="Layer_2" data-name="Layer 2"><g id="Layer_1-2" data-name="Layer 1"><path class="cls-1" d="M40,80A40,40,0,1,1,80,40,40,40,0,0,1,40,80ZM40,4.8A35.2,35.2,0,1,0,75.2,40,35.24,35.24,0,0,0,40,4.8Z"/><path class="cls-1" d="M61.12,18.88H18.88A2.88,2.88,0,0,0,16,21.76V58.24a2.88,2.88,0,0,0,2.88,2.88H61.12A2.88,2.88,0,0,0,64,58.24V21.76A2.88,2.88,0,0,0,61.12,18.88Zm-7.2,1.92A1.92,1.92,0,1,1,52,22.72,1.92,1.92,0,0,1,53.92,20.8Zm-5.28,0a1.92,1.92,0,1,1-1.92,1.92A1.92,1.92,0,0,1,48.64,20.8Zm-17,37.44a8.44,8.44,0,0,1,16.64,0Zm29.44-1.09a1.67,1.67,0,0,0-1.69-1.67H56.36a17.3,17.3,0,0,0-1.81-4.37l2.18-2.18a1.69,1.69,0,0,0,0-2.39L53.14,43a1.68,1.68,0,0,0-2.39,0l-2.19,2.17a17.09,17.09,0,0,0-4.36-1.81V40.25a1.67,1.67,0,0,0-1.67-1.69H37.47a1.67,1.67,0,0,0-1.67,1.69v3.07a17.09,17.09,0,0,0-4.36,1.81L29.25,43a1.67,1.67,0,0,0-2.39,0l-3.58,3.58a1.69,1.69,0,0,0,0,2.39l2.18,2.18a17.3,17.3,0,0,0-1.81,4.37H20.57a1.67,1.67,0,0,0-1.69,1.67V26.56H61.12V57.15ZM59.2,24.64a1.92,1.92,0,1,1,1.92-1.92A1.92,1.92,0,0,1,59.2,24.64Z"/></g></g></svg>