<svg xmlns="http://www.w3.org/2000/svg" viewBox="0 0 80 80"><defs><style>.cls-1{fill:#a88b6b;}</style></defs><title>website_design</title><g id="Layer_2" data-name="Layer 2"><g id="Layer_1-2" data-name="Layer 1"><path class="cls-1" d="M40,80A40,40,0,1,1,80,40,40,40,0,0,1,40,80ZM40,4.8A35.2,35.2,0,1,0,75.2,40,35.24,35.24,0,0,0,40,4.8Z"/><path class="cls-1" d="M46.2,61.47a2.35,2.35,0,0,1-.92-1.53L45,58H35l-.31,2a2.35,2.35,0,0,1-.92,1.53c-.83.61-1.49,1.14-.83,1.23s6.59,0,7,0,6.4.08,7,0S47,62.08,46.2,61.47Z"/><path class="cls-1" d="M28.8,45.54c2.66,0,3-.66,3.85-3.33,1.6-4.21,8.79,1.1,4.33,2.95S26.14,45.56,28.8,45.54Z"/><path class="cls-1" d="M56,17.8c-1.29-1-3.43-.52-4.77,1.15L37.64,38.31c-1.35,1.66-1.34,1.35,0,2.38s1,1.12,2.32-.55l16-17.43C57.28,21,57.33,18.84,56,17.8Zm-3.51,2.32a7.66,7.66,0,0,0-.86-.76A3.07,3.07,0,0,1,54.62,18C52.77,19.12,52.53,20.12,52.53,20.12Z"/><path class="cls-1" d="M62.08,24.35h-6l-2.65,2.87h7.68v23H18.88v-23H43.45l2-2.87H17.92A1.92,1.92,0,0,0,16,26.27V54.11A1.92,1.92,0,0,0,17.92,56H62.08A1.92,1.92,0,0,0,64,54.11V26.27A1.92,1.92,0,0,0,62.08,24.35Z"/></g></g></svg>